PathFileType	4	(X/Y/Z)	RBDS020static.trc
DataRate	CameraRate	NumFrames	NumMarkers	Units	OrigDataRate	OrigDataStartFrame	OrigNumFrames
150.000000	150.000000	4	48	mm	150.000000	131	150
Frame#	Time	L.Ankle			L.Ankle.Medial			L.ASIS			L.GTR			L.Heel.Bottom			L.Heel.Lateral			L.Heel.Top			L.HF			L.Iliac.Crest			L.Knee			L.Knee.Medial			L.MT1			L.MT2			L.MT5			L.PSIS			L.Shank.Bottom.Lateral			L.Shank.Bottom.Medial			L.Shank.Top.Lateral			L.Shank.Top.Medial			L.Thigh.Bottom.Lateral			L.Thigh.Bottom.Medial			L.Thigh.Top.Lateral			L.Thigh.Top.Medial			L.TT			R.Ankle			R.Ankle.Medial			R.ASIS			R.GTR			R.Heel.Bottom			R.Heel.Lateral			R.Heel.Top			R.HF			R.Iliac.Crest			R.Knee			R.Knee.Medial			R.MT1			R.MT2			R.MT5			R.PSIS			R.Shank.Bottom.Lateral			R.Shank.Bottom.Medial			R.Shank.Top.Lateral			R.Shank.Top.Medial			R.Thigh.Bottom.Lateral			R.Thigh.Bottom.Medial			R.Thigh.Top.Lateral			R.Thigh.Top.Medial			R.TT			
		X1	Y1	Z1	X2	Y2	Z2	X3	Y3	Z3	X4	Y4	Z4	X5	Y5	Z5	X6	Y6	Z6	X7	Y7	Z7	X8	Y8	Z8	X9	Y9	Z9	X10	Y10	Z10	X11	Y11	Z11	X12	Y12	Z12	X13	Y13	Z13	X14	Y14	Z14	X15	Y15	Z15	X16	Y16	Z16	X17	Y17	Z17	X18	Y18	Z18	X19	Y19	Z19	X20	Y20	Z20	X21	Y21	Z21	X22	Y22	Z22	X23	Y23	Z23	X24	Y24	Z24	X25	Y25	Z25	X26	Y26	Z26	X27	Y27	Z27	X28	Y28	Z28	X29	Y29	Z29	X30	Y30	Z30	X31	Y31	Z31	X32	Y32	Z32	X33	Y33	Z33	X34	Y34	Z34	X35	Y35	Z35	X36	Y36	Z36	X37	Y37	Z37	X38	Y38	Z38	X39	Y39	Z39	X40	Y40	Z40	X41	Y41	Z41	X42	Y42	Z42	X43	Y43	Z43	X44	Y44	Z44	X45	Y45	Z45	X46	Y46	Z46	X47	Y47	Z47	X48	Y48	Z48	

132	0.8733333333333334	705.0792846679688	110.4295883178711	1037.61279296875	734.6265258789063	116.659912109375	1116.133056640625	837.1654052734375	1045.016235351563	1099.1318359375	760.8451538085938	937.3628540039063	1040.839599609375	638.81787109375	39.24601745605469	1085.91455078125	661.997314453125	61.94906234741211	1042.465942382813	647.2280883789063	87.27285766601563	1085.577880859375	759.4019775390625	481.9971923828125	1033.878784179688	771.418212890625	1090.897705078125	1072.743408203125	757.3060302734375	540.2366943359375	1045.074584960938	762.25	523.5692749023438	1155.39990234375	857.3132934570313	62.06638336181641	1118.217895507813	864.48046875	68.94892883300781	1074.71337890625	823.560302734375	48.77770614624023	1011.393981933594	676.768798828125	1070.39013671875	1179.815185546875	713.5316162109375	186.3877716064453	1030.61181640625	675.1483154296875	189.8674011230469	1070.27685546875	711.3220825195313	266.6121520996094	1022.479248046875	675.2059326171875	270.8524780273438	1062.323608398438	759.4722290039063	714.7202758789063	1024.905517578125	701.503662109375	710.166015625	1069.177368164063	749.4771118164063	824.1343994140625	1024.831298828125	696.9735107421875	819.3504028320313	1070.84130859375	810.4024047851563	448.2864990234375	1079.353393554688	703.0501708984375	106.4433364868164	1409.640625	728.9695434570313	119.811408996582	1329.933349609375	849.471435546875	1033.695556640625	1342.700317382813	779.389892578125	938.7366333007813	1392.3330078125	633.7090454101563	40.28433609008789	1367.902465820313	660.9635009765625	57.74750900268555	1411.40478515625	641.03369140625	82.86211395263672	1367.359985351563	741.5422973632813	482.6772766113281	1402.470092773438	794.6165161132813	1084.881713867188	1371.046020507813	742.8947143554688	541.026611328125	1393.226318359375	756.2666625976563	525.7943725585938	1281.499877929688	845.5630493164063	59.99904251098633	1329.517333984375	860.8350219726563	74.57215118408203	1376.459350585938	825.38232421875	50.88448715209961	1439.641845703125	683.72119140625	1070.762939453125	1274.239013671875	710.2463989257813	202.9199066162109	1416.194091796875	669.3883056640625	208.2108764648438	1385.385986328125	713.7354125976563	287.5901489257813	1423.66943359375	669.3291625976563	288.8077697753906	1393.550415039063	730.5985717773438	677.0985717773438	1398.59326171875	684.5068969726563	675.1002197265625	1344.006103515625	725.720703125	787.7219848632813	1396.802856445313	683.330078125	785.05517578125	1343.079711914063	797.6280517578125	452.4066162109375	1351.223022460938	
133	0.88	705.0894775390625	110.4273452758789	1037.627807617188	734.6228637695313	116.6598358154297	1116.136962890625	837.15869140625	1045.025390625	1099.126586914063	760.8500366210938	937.36962890625	1040.833862304688	638.8280029296875	39.24403381347656	1085.916381835938	662.0130615234375	61.94526672363281	1042.476318359375	647.2355346679688	87.27272796630859	1085.578979492188	759.4171752929688	482.00341796875	1033.87841796875	771.4061889648438	1090.8984375	1072.757446289063	757.3318481445313	540.240966796875	1045.078369140625	762.2495727539063	523.5750122070313	1155.403930664063	857.3280639648438	62.06509399414063	1118.215087890625	864.4845581054688	68.94641876220703	1074.706787109375	823.55712890625	48.77413940429688	1011.393371582031	676.7671508789063	1070.39404296875	1179.820068359375	713.532470703125	186.3895416259766	1030.608520507813	675.1572265625	189.8715667724609	1070.28125	711.3255615234375	266.6141967773438	1022.480346679688	675.208740234375	270.8576049804688	1062.326782226563	759.4867553710938	714.7100830078125	1024.899780273438	701.5173950195313	710.1622314453125	1069.165405273438	749.4828491210938	824.133544921875	1024.827026367188	696.9872436523438	819.346923828125	1070.819946289063	810.4137573242188	448.2836608886719	1079.3515625	703.0506591796875	106.4458770751953	1409.638671875	728.9730224609375	119.8075561523438	1329.927856445313	849.4657592773438	1033.696166992188	1342.696044921875	779.3895874023438	938.7327270507813	1392.316650390625	633.7122802734375	40.28312683105469	1367.890502929688	660.9586791992188	57.75680160522461	1411.397705078125	641.031494140625	82.86392974853516	1367.352172851563	741.5490112304688	482.6796264648438	1402.465698242188	794.6138916015625	1084.884765625	1371.05615234375	742.8865966796875	541.0343017578125	1393.222534179688	756.279052734375	525.7938842773438	1281.504760742188	845.5789794921875	59.99718475341797	1329.528442382813	860.8378295898438	74.57801818847656	1376.465209960938	825.3796997070313	50.88950347900391	1439.644165039063	683.7233276367188	1070.766357421875	1274.233276367188	710.2425537109375	202.9258270263672	1416.192504882813	669.3889770507813	208.2070770263672	1385.384521484375	713.7435913085938	287.5827941894531	1423.653930664063	669.3392333984375	288.8087768554688	1393.548583984375	730.6029663085938	677.0956420898438	1398.588256835938	684.5191040039063	675.1002197265625	1343.997802734375	725.7230224609375	787.7199096679688	1396.797729492188	683.334228515625	785.0543823242188	1343.056396484375	797.6331176757813	452.4192199707031	1351.226806640625	
134	0.8866666666666667	705.09423828125	110.4396667480469	1037.603149414063	734.632080078125	116.6579360961914	1116.137451171875	837.1555786132813	1045.029541015625	1099.11376953125	760.8494873046875	937.3742065429688	1040.833374023438	638.8284301757813	39.24665069580078	1085.917236328125	662.0074462890625	61.95269012451172	1042.481323242188	647.2342529296875	87.27378845214844	1085.579833984375	759.4362182617188	482.0051879882813	1033.88134765625	771.3938598632813	1090.89599609375	1072.759887695313	757.3521728515625	540.2362670898438	1045.07373046875	762.2864990234375	523.5662841796875	1155.4013671875	857.3304443359375	62.0632209777832	1118.2138671875	864.479736328125	68.94834136962891	1074.712890625	823.5647583007813	48.78087997436523	1011.391357421875	676.7680053710938	1070.383178710938	1179.814453125	713.5366821289063	186.3937072753906	1030.603393554688	675.16064453125	189.8728790283203	1070.277954101563	711.3331909179688	266.6196899414063	1022.480773925781	675.2171020507813	270.8585205078125	1062.322387695313	759.5007934570313	714.7097778320313	1024.899169921875	701.5311889648438	710.1534423828125	1069.1640625	749.4822387695313	824.1348266601563	1024.816284179688	696.9874267578125	819.3323364257813	1070.818237304688	810.427490234375	448.290771484375	1079.348999023438	703.048095703125	106.4469375610352	1409.635498046875	728.9969482421875	119.806999206543	1329.930541992188	849.4552612304688	1033.703125	1342.701538085938	779.3817138671875	938.7343139648438	1392.313842773438	633.7119140625	40.28115844726563	1367.896606445313	660.9603271484375	57.75700378417969	1411.3984375	641.02734375	82.86271667480469	1367.3583984375	741.55126953125	482.68603515625	1402.470703125	794.6101684570313	1084.882568359375	1371.032470703125	742.90283203125	541.0346069335938	1393.2158203125	756.2881469726563	525.7949829101563	1281.503173828125	845.5726318359375	59.99342727661133	1329.519775390625	860.8426513671875	74.57563018798828	1376.474365234375	825.3775634765625	50.88440322875977	1439.642822265625	683.7142333984375	1070.759643554688	1274.224365234375	710.244140625	202.9254913330078	1416.1904296875	669.3958740234375	208.2084197998047	1385.381591796875	713.7463989257813	287.5919799804688	1423.659057617188	669.3434448242188	288.8065490722656	1393.544189453125	730.6066284179688	677.1019897460938	1398.58544921875	684.522705078125	675.0968627929688	1343.989013671875	725.7269287109375	787.7219848632813	1396.7841796875	683.339111328125	785.0457763671875	1343.0263671875	797.65185546875	452.4173278808594	1351.219116210938	
135	0.8933333333333334	705.0947875976563	110.4357299804688	1037.612915039063	734.641357421875	116.6567001342773	1116.129028320313	837.1480102539063	1045.034423828125	1099.115234375	760.8466796875	937.3675537109375	1040.832397460938	638.8231201171875	39.2349967956543	1085.908447265625	662.0089111328125	61.9553108215332	1042.466064453125	647.2376708984375	87.28278350830078	1085.577514648438	759.4382934570313	482.0104370117188	1033.870361328125	771.3984985351563	1090.8876953125	1072.755859375	757.364013671875	540.242919921875	1045.064086914063	762.304443359375	523.5891723632813	1155.401123046875	857.3240966796875	62.06266784667969	1118.212158203125	864.4896240234375	68.94683074951172	1074.702270507813	823.561279296875	48.77967071533203	1011.386962890625	676.7625122070313	1070.383911132813	1179.813232421875	713.5430908203125	186.3950500488281	1030.604858398438	675.1663208007813	189.8779907226563	1070.281616210938	711.3349609375	266.6175231933594	1022.474975585938	675.2297973632813	270.8625183105469	1062.319091796875	759.5155639648438	714.712646484375	1024.88037109375	701.5465087890625	710.146240234375	1069.152465820313	749.4855346679688	824.1245727539063	1024.803588867188	696.9805908203125	819.325439453125	1070.816162109375	810.4351806640625	448.289306640625	1079.342895507813	703.0579833984375	106.4421539306641	1409.63525390625	728.9713134765625	119.8118515014648	1329.917724609375	849.44775390625	1033.704223632813	1342.694091796875	779.3782348632813	938.741455078125	1392.309814453125	633.7135620117188	40.28668975830078	1367.898193359375	660.9605102539063	57.75061798095703	1411.397094726563	641.0317993164063	82.87017822265625	1367.358520507813	741.5645751953125	482.6861267089844	1402.461669921875	794.6082153320313	1084.885864257813	1371.024780273438	742.9067993164063	541.029296875	1393.222412109375	756.3009033203125	525.7957153320313	1281.499877929688	845.5728149414063	59.99381256103516	1329.51708984375	860.8517456054688	74.57209777832031	1376.452026367188	825.381591796875	50.88589859008789	1439.638671875	683.7122192382813	1070.768310546875	1274.229370117188	710.2459106445313	202.9323272705078	1416.192138671875	669.3995971679688	208.2136688232422	1385.38427734375	713.7561645507813	287.5868225097656	1423.658081054688	669.345703125	288.81494140625	1393.547119140625	730.604248046875	677.1038208007813	1398.576538085938	684.5345458984375	675.093017578125	1343.983520507813	725.7247924804688	787.7246704101563	1396.780883789063	683.3450927734375	785.0459594726563	1343.021240234375	797.6588745117188	452.4171447753906	1351.220947265625	
